<?xml version="1.0" encoding="UTF-8"?>
<!DOCTYPE svg PUBLIC "-//W3C//DTD SVG 1.1//EN" "http://www.w3.org/Graphics/SVG/1.1/DTD/svg11.dtd">
<svg xmlns="http://www.w3.org/2000/svg" version="1.1" width="409px" height="322px" style="shape-rendering:geometricPrecision; text-rendering:geometricPrecision; image-rendering:optimizeQuality; fill-rule:evenodd; clip-rule:evenodd" xmlns:xlink="http://www.w3.org/1999/xlink">
<g><path style="opacity:0.455" fill="#cf9b99" d="M 198.5,24.5 C 198.768,22.901 198.434,21.5676 197.5,20.5C 198.317,17.5214 199.151,14.5214 200,11.5C 201.487,10.2586 202.32,10.7586 202.5,13C 201.633,17.106 200.3,20.9394 198.5,24.5 Z"/></g>
<g><path style="opacity:0.322" fill="#d5989a" d="M 210.5,26.5 C 210.657,25.1266 210.49,23.7932 210,22.5C 209.184,23.8228 208.017,24.4894 206.5,24.5C 206.866,20.7701 208.866,18.4368 212.5,17.5C 213.334,13.8874 214.334,13.7207 215.5,17C 214.194,20.4496 212.527,23.6163 210.5,26.5 Z"/></g>
<g><path style="opacity:0.833" fill="#ca9092" d="M 206.5,60.5 C 206.682,58.3254 207.349,56.3254 208.5,54.5C 208.253,53.2867 207.586,52.62 206.5,52.5C 212.221,43.0042 217.055,33.0042 221,22.5C 222.856,20.5938 225.023,19.7605 227.5,20C 222.164,34.5096 215.164,48.0096 206.5,60.5 Z"/></g>
<g><path style="opacity:0.227" fill="#d59a9d" d="M 230.5,48.5 C 229.903,48.2648 229.57,47.7648 229.5,47C 231.182,45.1049 231.682,42.9383 231,40.5C 229.748,42.0009 228.748,43.6675 228,45.5C 227.329,46.2524 226.496,46.5858 225.5,46.5C 226.673,42.1404 228.839,38.4737 232,35.5C 232.945,35.9054 233.612,36.572 234,37.5C 234.637,35.6969 235.803,34.3636 237.5,33.5C 238.583,34.365 238.749,35.365 238,36.5C 235.725,40.7324 233.225,44.7324 230.5,48.5 Z"/></g>
<g><path style="opacity:0.137" fill="#c17070" d="M 210.5,26.5 C 206.302,38.1201 200.968,49.1201 194.5,59.5C 194.162,56.8431 194.829,54.5098 196.5,52.5C 196.062,51.4937 195.396,51.4937 194.5,52.5C 192.906,55.937 191.073,59.2703 189,62.5C 187.412,64.5905 185.578,66.2571 183.5,67.5C 188.978,58.5557 194.478,49.5557 200,40.5C 202.991,35.5159 205.158,30.1825 206.5,24.5C 208.017,24.4894 209.184,23.8228 210,22.5C 210.49,23.7932 210.657,25.1266 210.5,26.5 Z"/></g>
<g><path style="opacity:0.812" fill="#bc6563" d="M 230.5,48.5 C 225.903,56.0926 220.569,63.0926 214.5,69.5C 214.923,67.2188 214.256,65.5521 212.5,64.5C 216.894,58.4552 221.228,52.4552 225.5,46.5C 226.496,46.5858 227.329,46.2524 228,45.5C 228.748,43.6675 229.748,42.0009 231,40.5C 231.682,42.9383 231.182,45.1049 229.5,47C 229.57,47.7648 229.903,48.2648 230.5,48.5 Z"/></g>
<g><path style="opacity:0.882" fill="#b86465" d="M 197.5,20.5 C 198.434,21.5676 198.768,22.901 198.5,24.5C 193.618,39.4807 187.951,54.1474 181.5,68.5C 181.167,68.5 180.833,68.5 180.5,68.5C 180.906,66.8908 180.906,65.5575 180.5,64.5C 176.094,70.3028 171.928,76.3028 168,82.5C 165.407,83.7461 162.907,85.0794 160.5,86.5C 160.586,85.5041 160.252,84.6708 159.5,84C 161.659,80.1789 163.659,76.3455 165.5,72.5C 165.5,72.1667 165.5,71.8333 165.5,71.5C 166.404,70.791 166.737,69.791 166.5,68.5C 168.935,64.7418 171.102,60.7418 173,56.5C 177.199,46.4375 180.533,36.1042 183,25.5C 186.165,19.8949 187.499,20.2282 187,26.5C 181.9,43.1327 176.567,59.1327 171,74.5C 175.364,68.4541 179.364,62.1208 183,55.5C 187.868,44.597 192.035,33.4303 195.5,22C 195.836,20.9701 196.503,20.4701 197.5,20.5 Z"/></g>
<g><path style="opacity:0.467" fill="#cc9393" d="M 242.5,71.5 C 242.768,69.901 242.434,68.5676 241.5,67.5C 243.437,66.0686 245.27,64.4019 247,62.5C 247.692,63.0253 248.192,63.6919 248.5,64.5C 246.822,67.1727 244.822,69.506 242.5,71.5 Z"/></g>
<g><path style="opacity:0.518" fill="#c68485" d="M 221.5,79.5 C 221.5,77.8333 221.5,76.1667 221.5,74.5C 223.986,73.7562 225.986,72.2562 227.5,70C 230.184,64.0231 233.851,58.1898 238.5,52.5C 237.998,51.479 237.332,51.3123 236.5,52C 228.611,62.8951 219.611,72.8951 209.5,82C 208.552,82.4828 207.552,82.6495 206.5,82.5C 206.5,82.1667 206.5,81.8333 206.5,81.5C 217.229,72.601 226.396,62.2676 234,50.5C 236.101,49.0755 238.267,47.7422 240.5,46.5C 242.101,47.0347 242.601,48.0347 242,49.5C 235.885,60.0865 229.052,70.0865 221.5,79.5 Z"/></g>
<g><path style="opacity:0.118" fill="#c46262" d="M 194.5,59.5 C 190.319,67.2082 185.652,74.5415 180.5,81.5C 181.96,78.2955 182.46,74.9622 182,71.5C 178.26,76.0493 175.26,81.0493 173,86.5C 169.581,89.4124 166.748,92.7457 164.5,96.5C 164.082,95.7784 163.416,95.2784 162.5,95C 163.5,94.1667 164.5,93.3333 165.5,92.5C 164.508,92.6462 163.342,92.3129 162,91.5C 160.098,93.6268 158.431,95.9602 157,98.5C 157.245,94.2611 158.412,90.2611 160.5,86.5C 162.907,85.0794 165.407,83.7461 168,82.5C 171.928,76.3028 176.094,70.3028 180.5,64.5C 180.906,65.5575 180.906,66.8908 180.5,68.5C 180.833,69.8333 181.167,69.8333 181.5,68.5C 182.167,68.1667 182.833,67.8333 183.5,67.5C 185.578,66.2571 187.412,64.5905 189,62.5C 191.073,59.2703 192.906,55.937 194.5,52.5C 195.396,51.4937 196.062,51.4937 196.5,52.5C 194.829,54.5098 194.162,56.8431 194.5,59.5 Z"/></g>
<g><path style="opacity:0.773" fill="#ba605f" d="M 206.5,52.5 C 207.586,52.62 208.253,53.2867 208.5,54.5C 207.349,56.3254 206.682,58.3254 206.5,60.5C 201.398,67.7183 196.064,74.7183 190.5,81.5C 191.052,79.6693 191.052,78.0026 190.5,76.5C 187.015,79.484 183.682,82.6507 180.5,86C 179.833,86.6667 179.167,86.6667 178.5,86C 179.099,84.3775 179.766,82.8775 180.5,81.5C 180.897,82.525 181.563,82.6917 182.5,82C 191.879,73.1378 199.879,63.3045 206.5,52.5 Z"/></g>
<g><path style="opacity:0.863" fill="#bd4847" d="M 180.5,81.5 C 179.766,82.8775 179.099,84.3775 178.5,86C 179.167,86.6667 179.833,86.6667 180.5,86C 183.682,82.6507 187.015,79.484 190.5,76.5C 191.052,78.0026 191.052,79.6693 190.5,81.5C 187.265,82.595 185.432,84.9283 185,88.5C 182.5,89.6667 180.667,91.5 179.5,94C 174.92,94.7719 171.253,96.9386 168.5,100.5C 166.833,100.5 165.167,100.5 163.5,100.5C 163.433,99.0413 163.766,97.7079 164.5,96.5C 166.748,92.7457 169.581,89.4124 173,86.5C 175.26,81.0493 178.26,76.0493 182,71.5C 182.46,74.9622 181.96,78.2955 180.5,81.5 Z"/></g>
<g><path style="opacity:0.857" fill="#b65252" d="M 241.5,67.5 C 242.434,68.5676 242.768,69.901 242.5,71.5C 239.16,75.1724 235.827,78.8391 232.5,82.5C 232.833,82.8333 233.167,83.1667 233.5,83.5C 234.94,82.0476 236.606,81.0476 238.5,80.5C 240.048,80.8212 240.715,81.8212 240.5,83.5C 238.692,83.4914 237.025,83.9914 235.5,85C 230.873,91.9081 225.373,98.0748 219,103.5C 218.508,102.451 218.674,101.451 219.5,100.5C 221.952,96.88 224.952,93.7133 228.5,91C 227.167,90 227.167,89 228.5,88C 227.687,86.6861 226.687,85.5195 225.5,84.5C 226.127,83.5832 226.461,82.5832 226.5,81.5C 231.917,77.3927 236.917,72.726 241.5,67.5 Z"/></g>
<g><path style="opacity:0.855" fill="#c26869" d="M 240.5,104.5 C 245.562,103.385 250.062,101.051 254,97.5C 254.333,97.8333 254.667,98.1667 255,98.5C 256.337,97.2351 257.837,96.7351 259.5,97C 257.254,98.2568 255.921,100.09 255.5,102.5C 252.7,105.136 250.033,107.969 247.5,111C 250.353,110.883 253.02,110.05 255.5,108.5C 256.978,108.238 258.311,108.571 259.5,109.5C 255.195,111.473 251.195,113.806 247.5,116.5C 247.167,116.5 246.833,116.5 246.5,116.5C 239.641,117.766 233.641,120.932 228.5,126C 222.48,128.703 216.48,131.369 210.5,134C 201.243,136.487 191.91,138.154 182.5,139C 193.977,136.149 205.311,132.816 216.5,129C 219.833,127 223.167,125 226.5,123C 233.067,117.347 239.734,111.847 246.5,106.5C 246,106.167 245.5,105.833 245,105.5C 240.328,106.888 235.828,108.555 231.5,110.5C 230.5,110.333 229.5,110.167 228.5,110C 229.451,109.282 229.617,108.449 229,107.5C 217.221,118.645 203.721,127.145 188.5,133C 184.551,134.184 180.551,134.518 176.5,134C 182.773,130.686 189.439,128.353 196.5,127C 200.708,123.591 205.375,120.924 210.5,119C 215.729,114.898 221.062,111.065 226.5,107.5C 228.19,104.751 228.857,102.084 228.5,99.5C 229.167,99.5 229.5,99.1667 229.5,98.5C 230.167,98.5 230.5,98.1667 230.5,97.5C 235.89,94.2897 240.89,90.4564 245.5,86C 248.44,85.1144 249.44,85.9477 248.5,88.5C 242.982,94.1835 237.649,100.017 232.5,106C 235.22,106.045 237.886,105.545 240.5,104.5 Z"/></g>
<g><path style="opacity:0.486" fill="#ce8f91" d="M 255.5,102.5 C 255.921,100.09 257.254,98.2568 259.5,97C 257.837,96.7351 256.337,97.2351 255,98.5C 254.667,98.1667 254.333,97.8333 254,97.5C 250.062,101.051 245.562,103.385 240.5,104.5C 245.753,100.589 250.753,96.2559 255.5,91.5C 256.799,92.09 257.632,93.09 258,94.5C 259.154,93.2567 260.488,92.2567 262,91.5C 263.982,93.8316 263.482,95.665 260.5,97C 260.833,97.3333 261.167,97.6667 261.5,98C 259.649,99.7524 257.649,101.252 255.5,102.5 Z"/></g>
<g><path style="opacity:0.916" fill="#c05253" d="M 212.5,64.5 C 214.256,65.5521 214.923,67.2188 214.5,69.5C 213.488,70.8717 212.488,72.205 211.5,73.5C 203.276,81.2217 195.109,89.2217 187,97.5C 186.517,98.448 186.351,99.448 186.5,100.5C 179.755,103.866 173.755,108.199 168.5,113.5C 166.858,114.867 165.192,115.201 163.5,114.5C 169.313,110.521 174.313,105.687 178.5,100C 181.071,99.0991 183.404,97.7658 185.5,96C 184.549,95.2825 184.383,94.4491 185,93.5C 187.743,91.2616 189.909,88.595 191.5,85.5C 193.984,83.517 196.317,81.3504 198.5,79C 200.256,78.7978 201.922,78.2978 203.5,77.5C 206.696,73.6777 209.363,69.6777 211.5,65.5C 211.5,64.8333 211.833,64.5 212.5,64.5 Z"/></g>
<g><path style="opacity:0.392" fill="#ca7374" d="M 231.5,95.5 C 230.448,95.3505 229.448,95.5172 228.5,96C 223.803,101.694 218.803,107.028 213.5,112C 207.865,112.65 203.532,115.316 200.5,120C 195.709,121.451 191.376,123.784 187.5,127C 183.009,127.145 178.676,127.979 174.5,129.5C 172.431,129.176 172.098,128.342 173.5,127C 178.031,126.463 181.531,124.297 184,120.5C 196.065,117.2 206.899,111.533 216.5,103.5C 215.675,102.614 214.675,102.281 213.5,102.5C 214.531,101.751 215.698,101.085 217,100.5C 217.783,98.5665 217.283,97.0665 215.5,96C 218.522,92.9782 221.522,89.9782 224.5,87C 223.824,85.3167 222.824,85.1501 221.5,86.5C 222.422,84.1837 224.089,82.517 226.5,81.5C 226.461,82.5832 226.127,83.5832 225.5,84.5C 226.687,85.5195 227.687,86.6861 228.5,88C 227.167,89 227.167,90 228.5,91C 224.952,93.7133 221.952,96.88 219.5,100.5C 218.674,101.451 218.508,102.451 219,103.5C 225.373,98.0748 230.873,91.9081 235.5,85C 237.025,83.9914 238.692,83.4914 240.5,83.5C 240.715,81.8212 240.048,80.8212 238.5,80.5C 242.141,77.0317 245.974,73.6984 250,70.5C 250.833,71.3333 251.667,72.1667 252.5,73C 244.9,80.0947 237.9,87.5947 231.5,95.5 Z"/></g>
<g><path style="opacity:0.741" fill="#c16364" d="M 221.5,79.5 C 216.332,86.9578 210.332,93.7912 203.5,100C 204.167,100.667 204.833,100.667 205.5,100C 211.09,95.7194 216.423,91.2194 221.5,86.5C 222.824,85.1501 223.824,85.3167 224.5,87C 221.522,89.9782 218.522,92.9782 215.5,96C 217.283,97.0665 217.783,98.5665 217,100.5C 215.698,101.085 214.531,101.751 213.5,102.5C 211.825,104.002 209.992,105.335 208,106.5C 205.977,104.987 206.144,103.654 208.5,102.5C 208.167,102.167 207.833,101.833 207.5,101.5C 196.893,109.31 185.726,115.977 174,121.5C 172.174,120.99 172.007,120.156 173.5,119C 184.759,112.859 194.759,105.026 203.5,95.5C 202.603,95.3309 201.603,94.9976 200.5,94.5C 204.985,90.5154 209.318,86.3487 213.5,82C 212.833,81.3333 212.167,81.3333 211.5,82C 203.831,89.1842 195.497,95.3508 186.5,100.5C 186.351,99.448 186.517,98.448 187,97.5C 195.109,89.2217 203.276,81.2217 211.5,73.5C 209.833,76.1667 208.167,78.8333 206.5,81.5C 205.167,81.8333 205.167,82.1667 206.5,82.5C 207.552,82.6495 208.552,82.4828 209.5,82C 219.611,72.8951 228.611,62.8951 236.5,52C 237.332,51.3123 237.998,51.479 238.5,52.5C 233.851,58.1898 230.184,64.0231 227.5,70C 225.986,72.2562 223.986,73.7562 221.5,74.5C 221.5,76.1667 221.5,77.8333 221.5,79.5 Z"/></g>
<g><path style="opacity:0.824" fill="#d28f90" d="M 166.5,68.5 C 165.596,69.209 165.263,70.209 165.5,71.5C 164.167,71.8333 164.167,72.1667 165.5,72.5C 163.659,76.3455 161.659,80.1789 159.5,84C 160.252,84.6708 160.586,85.5041 160.5,86.5C 158.412,90.2611 157.245,94.2611 157,98.5C 158.431,95.9602 160.098,93.6268 162,91.5C 163.342,92.3129 164.508,92.6462 165.5,92.5C 164.5,93.3333 163.5,94.1667 162.5,95C 163.416,95.2784 164.082,95.7784 164.5,96.5C 163.766,97.7079 163.433,99.0413 163.5,100.5C 165.167,100.5 166.833,100.5 168.5,100.5C 169.239,100.369 169.906,100.536 170.5,101C 168.619,102.102 166.952,103.435 165.5,105C 165.735,105.873 166.069,106.707 166.5,107.5C 161.866,108.347 159.199,111.014 158.5,115.5C 161.024,115.429 163.024,116.429 164.5,118.5C 166.961,117.709 168.294,116.042 168.5,113.5C 173.755,108.199 179.755,103.866 186.5,100.5C 195.497,95.3508 203.831,89.1842 211.5,82C 212.167,81.3333 212.833,81.3333 213.5,82C 209.318,86.3487 204.985,90.5154 200.5,94.5C 201.603,94.9976 202.603,95.3309 203.5,95.5C 194.759,105.026 184.759,112.859 173.5,119C 172.007,120.156 172.174,120.99 174,121.5C 185.726,115.977 196.893,109.31 207.5,101.5C 207.833,101.833 208.167,102.167 208.5,102.5C 206.144,103.654 205.977,104.987 208,106.5C 209.992,105.335 211.825,104.002 213.5,102.5C 214.675,102.281 215.675,102.614 216.5,103.5C 206.899,111.533 196.065,117.2 184,120.5C 181.531,124.297 178.031,126.463 173.5,127C 172.098,128.342 172.431,129.176 174.5,129.5C 178.676,127.979 183.009,127.145 187.5,127C 191.376,123.784 195.709,121.451 200.5,120C 203.532,115.316 207.865,112.65 213.5,112C 218.803,107.028 223.803,101.694 228.5,96C 229.448,95.5172 230.448,95.3505 231.5,95.5C 231.167,96.1667 230.833,96.8333 230.5,97.5C 229.833,97.5 229.5,97.8333 229.5,98.5C 228.833,98.5 228.5,98.8333 228.5,99.5C 228.857,102.084 228.19,104.751 226.5,107.5C 221.062,111.065 215.729,114.898 210.5,119C 205.375,120.924 200.708,123.591 196.5,127C 189.439,128.353 182.773,130.686 176.5,134C 180.551,134.518 184.551,134.184 188.5,133C 203.721,127.145 217.221,118.645 229,107.5C 229.617,108.449 229.451,109.282 228.5,110C 229.5,110.167 230.5,110.333 231.5,110.5C 235.828,108.555 240.328,106.888 245,105.5C 245.5,105.833 246,106.167 246.5,106.5C 239.734,111.847 233.067,117.347 226.5,123C 223.167,125 219.833,127 216.5,129C 205.311,132.816 193.977,136.149 182.5,139C 191.91,138.154 201.243,136.487 210.5,134C 216.48,131.369 222.48,128.703 228.5,126C 233.641,120.932 239.641,117.766 246.5,116.5C 246.5,116.833 246.5,117.167 246.5,117.5C 245.833,117.5 245.5,117.833 245.5,118.5C 244.833,118.5 244.5,118.833 244.5,119.5C 243.833,119.5 243.5,119.833 243.5,120.5C 242.833,120.5 242.5,120.833 242.5,121.5C 241.833,121.5 241.5,121.833 241.5,122.5C 240.833,122.5 240.5,122.833 240.5,123.5C 239.167,123.833 239.167,124.167 240.5,124.5C 234.964,131.106 227.964,135.439 219.5,137.5C 210.616,137.795 201.949,139.295 193.5,142C 190.079,143.589 187.079,145.755 184.5,148.5C 184.833,148.833 185.167,149.167 185.5,149.5C 190.844,146.161 196.511,143.494 202.5,141.5C 203.737,141.556 204.737,142.056 205.5,143C 202.754,144.75 199.754,145.75 196.5,146C 196.998,147.158 197.831,147.991 199,148.5C 205.598,146.155 212.431,144.822 219.5,144.5C 217.577,143.692 215.577,143.192 213.5,143C 217.822,141.352 222.156,141.519 226.5,143.5C 228.991,141.588 231.658,140.254 234.5,139.5C 235.605,138.4 236.938,137.733 238.5,137.5C 239.583,137.461 240.583,137.127 241.5,136.5C 242.386,137.325 242.719,138.325 242.5,139.5C 236.807,141.179 231.474,143.679 226.5,147C 219.033,147.885 211.7,149.385 204.5,151.5C 207.095,152.851 209.762,154.017 212.5,155C 210.9,156.608 209.567,158.441 208.5,160.5C 214.169,161.744 219.836,161.744 225.5,160.5C 226.737,160.556 227.737,161.056 228.5,162C 219.51,166.083 210.176,168.249 200.5,168.5C 200.5,169.5 200.5,170.5 200.5,171.5C 210.867,170.161 220.867,167.328 230.5,163C 233.557,162.744 236.557,162.244 239.5,161.5C 239.833,161.833 240.167,162.167 240.5,162.5C 238.833,163.667 237.167,164.833 235.5,166C 241.532,169.365 246.198,174.032 249.5,180C 248.756,181.039 247.756,181.539 246.5,181.5C 244.488,180.772 242.488,179.938 240.5,179C 236.452,175.284 232.118,171.95 227.5,169C 226.365,168.251 225.365,168.417 224.5,169.5C 230.963,173.248 236.963,177.748 242.5,183C 243.793,183.49 245.127,183.657 246.5,183.5C 246.328,184.492 246.662,185.158 247.5,185.5C 247.833,185.5 248.167,185.5 248.5,185.5C 249.455,187.746 250.122,190.079 250.5,192.5C 246.366,193.624 242.366,193.124 238.5,191C 236.201,187.368 233.201,184.368 229.5,182C 222.301,181.238 215.301,179.571 208.5,177C 205.773,176.182 203.106,176.348 200.5,177.5C 210.331,178.958 219.665,181.958 228.5,186.5C 230.589,185.197 232.256,185.697 233.5,188C 232.049,187.737 230.716,187.904 229.5,188.5C 229.977,189.478 230.643,190.311 231.5,191C 237.859,192.362 243.859,194.529 249.5,197.5C 249.821,199.048 250.821,199.715 252.5,199.5C 252.5,200.5 252.5,201.5 252.5,202.5C 254.604,202.201 256.604,202.534 258.5,203.5C 255.779,206.38 252.612,208.714 249,210.5C 247.333,209.5 245.667,208.5 244,207.5C 242.204,208.767 240.371,208.767 238.5,207.5C 238.002,208.603 237.669,209.603 237.5,210.5C 236.252,209.96 235.085,209.293 234,208.5C 233.667,209.167 233.333,209.833 233,210.5C 231.663,208.996 229.996,207.996 228,207.5C 225.639,208.066 223.806,207.066 222.5,204.5C 221.41,205.391 221.41,206.391 222.5,207.5C 220.238,209.508 220.738,209.841 224,208.5C 224.497,210.81 224.663,213.143 224.5,215.5C 226.527,215.338 228.527,215.505 230.5,216C 229.137,218.129 229.471,218.629 231.5,217.5C 232.208,220.366 232.875,223.2 233.5,226C 233.167,226.167 232.833,226.333 232.5,226.5C 228.694,223.605 225.36,220.272 222.5,216.5C 220.604,215.534 218.604,215.201 216.5,215.5C 216.523,217.927 217.023,220.26 218,222.5C 218.333,221.5 218.667,220.5 219,219.5C 220.415,222.958 220.915,226.625 220.5,230.5C 222.5,230.833 224.5,231.167 226.5,231.5C 226.714,233.144 226.38,234.644 225.5,236C 211.838,240.166 212.172,241.999 226.5,241.5C 228.53,237.798 230.196,237.465 231.5,240.5C 228.254,242.318 225.42,244.651 223,247.5C 220.589,248.127 218.089,248.127 215.5,247.5C 215.728,249.355 215.061,250.188 213.5,250C 213.833,249.667 214.167,249.333 214.5,249C 213.039,247.649 211.706,246.149 210.5,244.5C 210.709,243.914 211.043,243.414 211.5,243C 210.299,242.097 209.465,240.931 209,239.5C 207.933,241.283 206.433,241.783 204.5,241C 204.665,239.883 204.998,238.716 205.5,237.5C 209.083,237.051 212.25,235.718 215,233.5C 214.884,229.086 214.051,224.753 212.5,220.5C 211.548,222.045 211.215,223.712 211.5,225.5C 209.61,225.297 208.11,225.963 207,227.5C 206.503,224.854 206.336,222.187 206.5,219.5C 204.833,219.5 203.167,219.5 201.5,219.5C 201.5,222.833 201.5,226.167 201.5,229.5C 193.46,229.48 192.96,228.48 200,226.5C 200.601,225.035 200.101,224.035 198.5,223.5C 194.86,225.042 191.027,225.709 187,225.5C 183.779,225.459 180.612,225.125 177.5,224.5C 176.069,224.977 174.736,225.643 173.5,226.5C 173.709,227.086 174.043,227.586 174.5,228C 177.92,228.517 181.253,229.35 184.5,230.5C 179.891,231.471 175.891,233.471 172.5,236.5C 169.695,237.319 166.695,237.819 163.5,238C 162.833,238.667 162.167,239.333 161.5,240C 162.451,240.718 162.617,241.551 162,242.5C 154.511,247.287 154.678,251.787 162.5,256C 164.92,255.975 167.253,255.309 169.5,254C 167.978,251.695 165.978,250.195 163.5,249.5C 163.338,247.473 163.505,245.473 164,243.5C 164.383,242.944 164.883,242.611 165.5,242.5C 169.123,241.242 172.79,241.242 176.5,242.5C 178.619,244.4 180.953,246.066 183.5,247.5C 183.931,244.715 183.931,242.048 183.5,239.5C 185.071,240.309 186.738,240.643 188.5,240.5C 188.534,243.199 187.867,245.699 186.5,248C 187.784,248.684 188.951,248.517 190,247.5C 192.7,249.269 195.534,250.602 198.5,251.5C 198.351,252.552 198.517,253.552 199,254.5C 201.847,253.494 204.681,252.494 207.5,251.5C 207.297,253.638 206.297,255.305 204.5,256.5C 204.833,256.833 205.167,257.167 205.5,257.5C 209.051,255.563 212.717,255.229 216.5,256.5C 214.257,257.474 211.924,257.808 209.5,257.5C 209.5,258.5 209.5,259.5 209.5,260.5C 208.5,260.5 207.5,260.5 206.5,260.5C 205.71,261.401 204.71,262.068 203.5,262.5C 199.635,261.776 195.635,261.109 191.5,260.5C 190.833,260.833 190.167,261.167 189.5,261.5C 183.621,258.729 177.955,255.729 172.5,252.5C 170.577,258.431 166.577,260.098 160.5,257.5C 157.833,254.5 155.167,251.5 152.5,248.5C 154.934,245.777 157.601,243.277 160.5,241C 158.798,239.417 157.464,239.917 156.5,242.5C 152.204,240.901 147.871,239.401 143.5,238C 140.891,235.356 137.891,233.189 134.5,231.5C 133.614,230.675 133.281,229.675 133.5,228.5C 130.325,228.497 127.492,227.497 125,225.5C 124.517,226.448 124.351,227.448 124.5,228.5C 122.213,228.276 120.047,227.609 118,226.5C 117.5,226.667 117,226.833 116.5,227C 117.337,228.011 117.67,229.178 117.5,230.5C 115.876,230.64 114.71,229.973 114,228.5C 113.282,229.451 112.449,229.617 111.5,229C 109.428,223.281 105.928,219.448 101,217.5C 100.311,218.357 99.4776,219.023 98.5,219.5C 96.9033,216.629 95.07,213.963 93,211.5C 89.8775,211.945 86.7108,211.445 83.5,210C 82.7107,206.903 81.544,206.736 80,209.5C 76.6756,207.661 73.509,205.661 70.5,203.5C 70.33,202.178 70.6634,201.011 71.5,200C 69.3624,197.525 67.1958,195.025 65,192.5C 63.525,189.24 62.3584,185.907 61.5,182.5C 62.5,182.5 63.5,182.5 64.5,182.5C 65.5992,193.038 66.4326,193.038 67,182.5C 68,181.833 69,181.167 70,180.5C 70.1515,177.881 70.9848,175.547 72.5,173.5C 70.6819,172.226 69.0153,170.726 67.5,169C 66.1011,168.405 64.7678,168.572 63.5,169.5C 63.1667,169 62.8333,168.5 62.5,168C 63.9284,165.865 65.2617,163.698 66.5,161.5C 66.0431,160.702 65.3764,160.369 64.5,160.5C 65.5434,157.944 67.2101,155.777 69.5,154C 73.4373,151.535 77.4373,149.368 81.5,147.5C 81.3893,148.117 81.056,148.617 80.5,149C 86.1667,149.333 91.8333,149.667 97.5,150C 104.743,152.431 111.91,154.931 119,157.5C 123.884,156.931 128.05,154.931 131.5,151.5C 130.391,149.786 131.058,149.119 133.5,149.5C 131.847,130.182 137.514,113.515 150.5,99.5C 149.826,97.4835 148.659,95.8168 147,94.5C 144.954,101.534 141.287,107.534 136,112.5C 134.033,118.001 132.699,123.668 132,129.5C 131.8,131.32 130.966,132.653 129.5,133.5C 130.366,126.703 131.866,120.036 134,113.5C 139.441,103.781 143.941,93.6141 147.5,83C 147.306,80.9033 147.306,78.7366 147.5,76.5C 149.359,76.8879 151.359,76.8879 153.5,76.5C 153.833,77.3333 154.167,78.1667 154.5,79C 153.84,83.6526 153.007,88.1526 152,92.5C 158.144,82.8794 162.644,72.546 165.5,61.5C 166.5,61.8333 167.167,62.5 167.5,63.5C 166.691,65.0709 166.357,66.7376 166.5,68.5 Z M 169.5,249.5 C 167.688,249.229 166.022,248.562 164.5,247.5C 166.104,243.741 168.104,243.575 170.5,247C 169.748,247.671 169.414,248.504 169.5,249.5 Z M 170.5,250.5 C 171.833,250.5 172.5,251.167 172.5,252.5C 171.5,252.167 170.833,251.5 170.5,250.5 Z M 191.5,257.5 C 192.077,256.227 192.743,256.227 193.5,257.5C 193.03,258.463 192.363,258.463 191.5,257.5 Z M 199.5,256.5 C 201.625,257.368 201.791,258.368 200,259.5C 196.963,258.68 196.796,257.68 199.5,256.5 Z"/></g>
<g><path style="opacity:0.824" fill="#cf7f81" d="M 211.5,65.5 C 209.363,69.6777 206.696,73.6777 203.5,77.5C 201.922,78.2978 200.256,78.7978 198.5,79C 196.317,81.3504 193.984,83.517 191.5,85.5C 189.909,88.595 187.743,91.2616 185,93.5C 184.383,94.4491 184.549,95.2825 185.5,96C 183.404,97.7658 181.071,99.0991 178.5,100C 174.313,105.687 169.313,110.521 163.5,114.5C 165.192,115.201 166.858,114.867 168.5,113.5C 168.294,116.042 166.961,117.709 164.5,118.5C 163.024,116.429 161.024,115.429 158.5,115.5C 159.199,111.014 161.866,108.347 166.5,107.5C 166.069,106.707 165.735,105.873 165.5,105C 166.952,103.435 168.619,102.102 170.5,101C 169.906,100.536 169.239,100.369 168.5,100.5C 171.253,96.9386 174.92,94.7719 179.5,94C 180.667,91.5 182.5,89.6667 185,88.5C 185.432,84.9283 187.265,82.595 190.5,81.5C 187.553,84.7789 187.886,85.6122 191.5,84C 198.967,78.7001 205.633,72.5334 211.5,65.5 Z"/></g>
<g><path style="opacity:0.943" fill="#b95558" d="M 81.5,147.5 C 89.4955,144.988 97.4955,145.488 105.5,149C 124.332,159.266 132.332,154.1 129.5,133.5C 130.966,132.653 131.8,131.32 132,129.5C 132.699,123.668 134.033,118.001 136,112.5C 141.287,107.534 144.954,101.534 147,94.5C 148.659,95.8168 149.826,97.4835 150.5,99.5C 137.514,113.515 131.847,130.182 133.5,149.5C 131.058,149.119 130.391,149.786 131.5,151.5C 128.05,154.931 123.884,156.931 119,157.5C 111.91,154.931 104.743,152.431 97.5,150C 91.8333,149.667 86.1667,149.333 80.5,149C 81.056,148.617 81.3893,148.117 81.5,147.5 Z"/></g>
<g><path style="opacity:0.2" fill="#d8a4a7" d="M 256.5,123.5 C 257.901,123.971 259.234,124.638 260.5,125.5C 258.408,128.681 256.075,131.681 253.5,134.5C 253.938,135.506 254.604,135.506 255.5,134.5C 256.631,136.074 256.798,137.741 256,139.5C 252.624,142.383 249.124,145.049 245.5,147.5C 245.586,146.504 245.252,145.671 244.5,145C 246.388,142.81 248.555,140.977 251,139.5C 252.12,137.586 252.286,135.752 251.5,134C 252.996,132.669 254.329,131.169 255.5,129.5C 254.332,128.094 254.665,126.928 256.5,126C 255.226,125.023 255.226,124.189 256.5,123.5 Z"/></g>
<g><path style="opacity:0.824" fill="#cf8385" d="M 252.5,117.5 C 254.086,118.413 255.586,118.413 257,117.5C 258.609,118.147 260.109,118.98 261.5,120C 259.654,121.03 257.987,122.196 256.5,123.5C 255.226,124.189 255.226,125.023 256.5,126C 254.665,126.928 254.332,128.094 255.5,129.5C 254.329,131.169 252.996,132.669 251.5,134C 252.286,135.752 252.12,137.586 251,139.5C 248.555,140.977 246.388,142.81 244.5,145C 245.252,145.671 245.586,146.504 245.5,147.5C 244.764,149.229 243.43,150.229 241.5,150.5C 242.078,152.443 243.078,152.777 244.5,151.5C 251.215,154.723 253.215,159.557 250.5,166C 254.457,169.794 255.457,174.294 253.5,179.5C 257.331,186.661 255.665,188.661 248.5,185.5C 248.167,184.167 247.833,184.167 247.5,185.5C 246.662,185.158 246.328,184.492 246.5,183.5C 246.5,182.833 246.5,182.167 246.5,181.5C 247.756,181.539 248.756,181.039 249.5,180C 246.198,174.032 241.532,169.365 235.5,166C 237.167,164.833 238.833,163.667 240.5,162.5C 240.167,162.167 239.833,161.833 239.5,161.5C 236.557,162.244 233.557,162.744 230.5,163C 220.867,167.328 210.867,170.161 200.5,171.5C 200.5,170.5 200.5,169.5 200.5,168.5C 210.176,168.249 219.51,166.083 228.5,162C 227.737,161.056 226.737,160.556 225.5,160.5C 219.836,161.744 214.169,161.744 208.5,160.5C 209.567,158.441 210.9,156.608 212.5,155C 209.762,154.017 207.095,152.851 204.5,151.5C 211.7,149.385 219.033,147.885 226.5,147C 231.474,143.679 236.807,141.179 242.5,139.5C 242.719,138.325 242.386,137.325 241.5,136.5C 240.583,137.127 239.583,137.461 238.5,137.5C 243.121,134.844 247.454,131.677 251.5,128C 250.833,127.667 250.167,127.333 249.5,127C 251.754,126.376 253.421,125.043 254.5,123C 252.112,122.135 250.612,122.968 250,125.5C 248.365,124.151 246.865,124.318 245.5,126C 247.686,126.604 247.852,127.77 246,129.5C 241.389,131.888 237.222,134.888 233.5,138.5C 233.624,139.107 233.957,139.44 234.5,139.5C 231.658,140.254 228.991,141.588 226.5,143.5C 222.156,141.519 217.822,141.352 213.5,143C 215.577,143.192 217.577,143.692 219.5,144.5C 212.431,144.822 205.598,146.155 199,148.5C 197.831,147.991 196.998,147.158 196.5,146C 199.754,145.75 202.754,144.75 205.5,143C 204.737,142.056 203.737,141.556 202.5,141.5C 196.511,143.494 190.844,146.161 185.5,149.5C 185.167,149.167 184.833,148.833 184.5,148.5C 187.079,145.755 190.079,143.589 193.5,142C 201.949,139.295 210.616,137.795 219.5,137.5C 227.964,135.439 234.964,131.106 240.5,124.5C 240.5,124.167 240.5,123.833 240.5,123.5C 241.167,123.5 241.5,123.167 241.5,122.5C 242.167,122.5 242.5,122.167 242.5,121.5C 243.167,121.5 243.5,121.167 243.5,120.5C 244.167,120.5 244.5,120.167 244.5,119.5C 245.167,119.5 245.5,119.167 245.5,118.5C 246.167,118.5 246.5,118.167 246.5,117.5C 247.167,117.5 247.5,117.167 247.5,116.5C 251.195,113.806 255.195,111.473 259.5,109.5C 258.311,108.571 256.978,108.238 255.5,108.5C 258.413,106.519 261.413,106.353 264.5,108C 260.249,110.945 256.249,114.112 252.5,117.5 Z M 252.5,117.5 C 252.539,118.756 252.039,119.756 251,120.5C 250.415,119.002 250.915,118.002 252.5,117.5 Z"/></g>
<g><path style="opacity:0.875" fill="#c56162" d="M 241.5,150.5 C 234.195,156.163 225.862,159.496 216.5,160.5C 211.373,160.026 211.373,159.026 216.5,157.5C 215.975,156.808 215.308,156.308 214.5,156C 217.475,153.996 220.808,152.996 224.5,153C 230.667,150.745 236.667,148.245 242.5,145.5C 242.634,147.292 242.301,148.958 241.5,150.5 Z"/></g>
<g><path style="opacity:0.91" fill="#c0585b" d="M 238.5,137.5 C 236.938,137.733 235.605,138.4 234.5,139.5C 233.957,139.44 233.624,139.107 233.5,138.5C 237.222,134.888 241.389,131.888 246,129.5C 247.852,127.77 247.686,126.604 245.5,126C 246.865,124.318 248.365,124.151 250,125.5C 250.612,122.968 252.112,122.135 254.5,123C 253.421,125.043 251.754,126.376 249.5,127C 250.167,127.333 250.833,127.667 251.5,128C 247.454,131.677 243.121,134.844 238.5,137.5 Z"/></g>
<g><path style="opacity:0.827" fill="#cc7c7e" d="M 64.5,160.5 C 65.3764,160.369 66.0431,160.702 66.5,161.5C 65.2617,163.698 63.9284,165.865 62.5,168C 62.8333,168.5 63.1667,169 63.5,169.5C 64.7678,168.572 66.1011,168.405 67.5,169C 69.0153,170.726 70.6819,172.226 72.5,173.5C 70.9848,175.547 70.1515,177.881 70,180.5C 69,181.167 68,181.833 67,182.5C 66.4326,193.038 65.5992,193.038 64.5,182.5C 63.5,182.5 62.5,182.5 61.5,182.5C 55.701,180.403 49.701,179.236 43.5,179C 44.9874,176.263 47.3207,174.597 50.5,174C 50,173.5 49.5,173 49,172.5C 47.7553,172.461 46.4219,172.795 45,173.5C 43.9412,173.37 43.1079,172.87 42.5,172C 47.533,166.804 53.533,164.47 60.5,165C 61.7332,163.333 63.0665,161.833 64.5,160.5 Z"/></g>
<g><path style="opacity:0.902" fill="#bd5a5f" d="M 246.5,181.5 C 246.5,182.167 246.5,182.833 246.5,183.5C 245.127,183.657 243.793,183.49 242.5,183C 236.963,177.748 230.963,173.248 224.5,169.5C 225.365,168.417 226.365,168.251 227.5,169C 232.118,171.95 236.452,175.284 240.5,179C 242.488,179.938 244.488,180.772 246.5,181.5 Z"/></g>
<g><path style="opacity:0.867" fill="#bf6669" d="M 250.5,192.5 C 250.5,192.833 250.5,193.167 250.5,193.5C 250.389,194.117 250.056,194.617 249.5,195C 261.213,199.942 271.713,206.775 281,215.5C 281.399,215.272 281.565,214.938 281.5,214.5C 284.295,216.751 286.628,219.418 288.5,222.5C 289.623,226.341 292.123,229.008 296,230.5C 296.688,231.332 296.521,231.998 295.5,232.5C 293.167,231 290.833,229.5 288.5,228C 276.381,226.72 264.715,223.72 253.5,219C 252.289,218.107 252.289,217.274 253.5,216.5C 264.21,222.104 275.21,224.604 286.5,224C 281.334,217.747 275.334,212.414 268.5,208C 262.756,203.461 256.422,199.961 249.5,197.5C 243.859,194.529 237.859,192.362 231.5,191C 230.643,190.311 229.977,189.478 229.5,188.5C 230.716,187.904 232.049,187.737 233.5,188C 232.256,185.697 230.589,185.197 228.5,186.5C 219.665,181.958 210.331,178.958 200.5,177.5C 203.106,176.348 205.773,176.182 208.5,177C 215.301,179.571 222.301,181.238 229.5,182C 233.201,184.368 236.201,187.368 238.5,191C 242.366,193.124 246.366,193.624 250.5,192.5 Z"/></g>
<g><path style="opacity:0.825" fill="#cd7e80" d="M 113.5,171.5 C 116.952,171.39 118.952,173.057 119.5,176.5C 119.182,177.647 118.516,178.481 117.5,179C 118.484,181.732 117.484,183.732 114.5,185C 115.316,186.923 115.983,188.923 116.5,191C 118.422,192.419 119.755,194.253 120.5,196.5C 118.707,198.427 117.707,200.761 117.5,203.5C 118.5,203.5 119.5,203.5 120.5,203.5C 119.618,206.156 118.285,208.656 116.5,211C 118.804,211.895 121.138,212.729 123.5,213.5C 121.441,214.951 120.441,216.951 120.5,219.5C 117.881,219.232 115.381,219.565 113,220.5C 111.622,218.938 110.789,217.105 110.5,215C 111.411,208.291 112.411,201.791 113.5,195.5C 111.135,194.915 109.135,193.748 107.5,192C 110.827,190.209 111.16,188.043 108.5,185.5C 111.596,184.228 114.263,182.394 116.5,180C 116.038,178.278 115.872,176.445 116,174.5C 114.583,173.922 113.75,172.922 113.5,171.5 Z"/></g>
<g><path style="opacity:0.651" fill="#c8898b" d="M 250.5,193.5 C 262.711,197.769 273.044,204.769 281.5,214.5C 281.565,214.938 281.399,215.272 281,215.5C 271.713,206.775 261.213,199.942 249.5,195C 250.056,194.617 250.389,194.117 250.5,193.5 Z"/></g>
<g><path style="opacity:0.824" fill="#d28b8d" d="M 249.5,197.5 C 256.422,199.961 262.756,203.461 268.5,208C 275.334,212.414 281.334,217.747 286.5,224C 275.21,224.604 264.21,222.104 253.5,216.5C 252.289,217.274 252.289,218.107 253.5,219C 264.715,223.72 276.381,226.72 288.5,228C 290.833,229.5 293.167,231 295.5,232.5C 296.521,231.998 296.688,231.332 296,230.5C 292.123,229.008 289.623,226.341 288.5,222.5C 290.593,223.045 292.593,223.878 294.5,225C 298.548,228.716 302.882,232.05 307.5,235C 316.601,239.551 325.935,243.551 335.5,247C 339.233,249.523 342.899,252.023 346.5,254.5C 341.186,252.873 335.853,251.207 330.5,249.5C 332.47,251.634 334.637,253.634 337,255.5C 337.483,256.448 337.649,257.448 337.5,258.5C 340.14,258.954 342.473,260.121 344.5,262C 346.155,263.444 346.822,265.278 346.5,267.5C 348.554,267.635 350.221,266.968 351.5,265.5C 354.903,267.9 357.57,270.9 359.5,274.5C 356.225,273.064 353.059,271.397 350,269.5C 349.833,270 349.667,270.5 349.5,271C 354.306,273.644 358.306,277.144 361.5,281.5C 358.242,280.092 355.076,278.426 352,276.5C 351.536,277.094 351.369,277.761 351.5,278.5C 348.532,278.374 346.532,276.874 345.5,274C 344.552,273.517 343.552,273.351 342.5,273.5C 342.703,271.61 342.037,270.11 340.5,269C 331.419,264.126 322.086,259.793 312.5,256C 307.838,253.086 303.672,249.586 300,245.5C 299.5,245.667 299,245.833 298.5,246C 303.763,252.583 310.263,257.749 318,261.5C 323.698,263.269 329.198,265.436 334.5,268C 340.197,274.681 346.864,280.181 354.5,284.5C 354.728,286.355 354.061,287.188 352.5,287C 335.824,274.175 318.158,263.175 299.5,254C 295.088,253.212 290.921,251.712 287,249.5C 285.97,249.836 285.47,250.503 285.5,251.5C 281.158,249.672 277.491,246.839 274.5,243C 271.129,241.932 267.796,240.765 264.5,239.5C 264.167,239.833 263.833,240.167 263.5,240.5C 264.167,241.167 264.833,241.833 265.5,242.5C 264.758,244.35 263.758,245.016 262.5,244.5C 263.428,245.768 263.595,247.101 263,248.5C 258.872,247.513 255.039,245.846 251.5,243.5C 251.094,244.557 251.094,245.891 251.5,247.5C 249.321,248.103 247.154,248.77 245,249.5C 241.433,246.437 238.599,246.937 236.5,251C 238.525,252.194 238.859,253.694 237.5,255.5C 234.035,257.726 230.369,258.06 226.5,256.5C 226.662,258.527 226.495,260.527 226,262.5C 223.495,261.863 220.662,261.196 217.5,260.5C 215.793,260.728 214.126,261.062 212.5,261.5C 212.167,260.167 211.833,260.167 211.5,261.5C 210.662,261.842 210.328,262.508 210.5,263.5C 209.5,264.167 208.5,264.833 207.5,265.5C 207.53,264.503 207.03,263.836 206,263.5C 204.56,264.148 203.06,264.481 201.5,264.5C 202.167,263.833 202.833,263.167 203.5,262.5C 204.71,262.068 205.71,261.401 206.5,260.5C 207.5,260.5 208.5,260.5 209.5,260.5C 209.5,259.5 209.5,258.5 209.5,257.5C 211.924,257.808 214.257,257.474 216.5,256.5C 212.717,255.229 209.051,255.563 205.5,257.5C 205.167,257.167 204.833,256.833 204.5,256.5C 206.297,255.305 207.297,253.638 207.5,251.5C 204.681,252.494 201.847,253.494 199,254.5C 198.517,253.552 198.351,252.552 198.5,251.5C 195.534,250.602 192.7,249.269 190,247.5C 188.951,248.517 187.784,248.684 186.5,248C 187.867,245.699 188.534,243.199 188.5,240.5C 186.738,240.643 185.071,240.309 183.5,239.5C 183.931,242.048 183.931,244.715 183.5,247.5C 180.953,246.066 178.619,244.4 176.5,242.5C 172.79,241.242 169.123,241.242 165.5,242.5C 165.62,241.414 166.287,240.747 167.5,240.5C 172.515,239.916 177.182,238.416 181.5,236C 186.584,235.827 191.584,235.161 196.5,234C 188.16,232.735 180.16,233.569 172.5,236.5C 175.891,233.471 179.891,231.471 184.5,230.5C 181.253,229.35 177.92,228.517 174.5,228C 174.043,227.586 173.709,227.086 173.5,226.5C 174.736,225.643 176.069,224.977 177.5,224.5C 180.612,225.125 183.779,225.459 187,225.5C 191.027,225.709 194.86,225.042 198.5,223.5C 200.101,224.035 200.601,225.035 200,226.5C 192.96,228.48 193.46,229.48 201.5,229.5C 201.5,226.167 201.5,222.833 201.5,219.5C 203.167,219.5 204.833,219.5 206.5,219.5C 206.336,222.187 206.503,224.854 207,227.5C 208.11,225.963 209.61,225.297 211.5,225.5C 211.215,223.712 211.548,222.045 212.5,220.5C 214.051,224.753 214.884,229.086 215,233.5C 212.25,235.718 209.083,237.051 205.5,237.5C 204.998,238.716 204.665,239.883 204.5,241C 206.433,241.783 207.933,241.283 209,239.5C 209.465,240.931 210.299,242.097 211.5,243C 211.043,243.414 210.709,243.914 210.5,244.5C 211.706,246.149 213.039,247.649 214.5,249C 214.167,249.333 213.833,249.667 213.5,250C 215.061,250.188 215.728,249.355 215.5,247.5C 218.089,248.127 220.589,248.127 223,247.5C 225.42,244.651 228.254,242.318 231.5,240.5C 230.196,237.465 228.53,237.798 226.5,241.5C 212.172,241.999 211.838,240.166 225.5,236C 226.38,234.644 226.714,233.144 226.5,231.5C 224.5,231.167 222.5,230.833 220.5,230.5C 220.915,226.625 220.415,222.958 219,219.5C 218.667,220.5 218.333,221.5 218,222.5C 217.023,220.26 216.523,217.927 216.5,215.5C 218.604,215.201 220.604,215.534 222.5,216.5C 225.36,220.272 228.694,223.605 232.5,226.5C 232.833,226.333 233.167,226.167 233.5,226C 232.875,223.2 232.208,220.366 231.5,217.5C 229.471,218.629 229.137,218.129 230.5,216C 228.527,215.505 226.527,215.338 224.5,215.5C 224.663,213.143 224.497,210.81 224,208.5C 220.738,209.841 220.238,209.508 222.5,207.5C 221.41,206.391 221.41,205.391 222.5,204.5C 223.806,207.066 225.639,208.066 228,207.5C 229.996,207.996 231.663,208.996 233,210.5C 233.333,209.833 233.667,209.167 234,208.5C 235.085,209.293 236.252,209.96 237.5,210.5C 237.669,209.603 238.002,208.603 238.5,207.5C 240.371,208.767 242.204,208.767 244,207.5C 245.667,208.5 247.333,209.5 249,210.5C 252.612,208.714 255.779,206.38 258.5,203.5C 256.604,202.534 254.604,202.201 252.5,202.5C 252.5,201.5 252.5,200.5 252.5,199.5C 250.821,199.715 249.821,199.048 249.5,197.5 Z"/></g>
<g><path style="opacity:0.933" fill="#bc4345" d="M 165.5,242.5 C 164.883,242.611 164.383,242.944 164,243.5C 163.505,245.473 163.338,247.473 163.5,249.5C 165.978,250.195 167.978,251.695 169.5,254C 167.253,255.309 164.92,255.975 162.5,256C 154.678,251.787 154.511,247.287 162,242.5C 162.617,241.551 162.451,240.718 161.5,240C 162.167,239.333 162.833,238.667 163.5,238C 166.695,237.819 169.695,237.319 172.5,236.5C 180.16,233.569 188.16,232.735 196.5,234C 191.584,235.161 186.584,235.827 181.5,236C 177.182,238.416 172.515,239.916 167.5,240.5C 166.287,240.747 165.62,241.414 165.5,242.5 Z"/></g>
<g><path style="opacity:0.884" fill="#c36366" d="M 330.5,249.5 C 327.434,248.273 324.267,247.273 321,246.5C 319.743,246.85 319.409,247.517 320,248.5C 321.351,250.019 322.851,251.352 324.5,252.5C 323.224,253.645 321.891,253.645 320.5,252.5C 318.543,250.509 316.543,248.509 314.5,246.5C 313.253,244.677 312.586,242.677 312.5,240.5C 314.927,240.523 317.26,241.023 319.5,242C 321.597,243.61 323.93,244.777 326.5,245.5C 327.867,246.84 329.2,248.173 330.5,249.5 Z"/></g>
<g><path style="opacity:0.808" fill="#ca9b9e" d="M 251.5,247.5 C 252.147,248.274 252.48,249.274 252.5,250.5C 252.658,252.319 251.991,253.652 250.5,254.5C 247.608,253.606 244.941,252.272 242.5,250.5C 241.406,251.868 241.74,253.035 243.5,254C 242.833,254.333 242.167,254.667 241.5,255C 244.73,256.724 245.064,258.724 242.5,261C 238.12,260.714 233.786,259.881 229.5,258.5C 229.167,259 228.833,259.5 228.5,260C 229.509,261.168 230.509,262.335 231.5,263.5C 229.988,264.862 228.488,265.196 227,264.5C 226.692,265.308 226.192,265.975 225.5,266.5C 223.587,265.627 221.753,264.627 220,263.5C 218.594,264.668 217.428,264.335 216.5,262.5C 215.614,263.325 215.281,264.325 215.5,265.5C 213.302,265.88 211.635,265.213 210.5,263.5C 210.328,262.508 210.662,261.842 211.5,261.5C 211.833,262.833 212.167,262.833 212.5,261.5C 214.126,261.062 215.793,260.728 217.5,260.5C 220.662,261.196 223.495,261.863 226,262.5C 226.495,260.527 226.662,258.527 226.5,256.5C 230.369,258.06 234.035,257.726 237.5,255.5C 238.859,253.694 238.525,252.194 236.5,251C 238.599,246.937 241.433,246.437 245,249.5C 247.154,248.77 249.321,248.103 251.5,247.5 Z"/></g>
<g><path style="opacity:0.588" fill="#c2696b" d="M 330.5,249.5 C 335.853,251.207 341.186,252.873 346.5,254.5C 346.5,255.167 346.833,255.5 347.5,255.5C 347.281,256.675 347.614,257.675 348.5,258.5C 351.39,260.438 354.056,262.605 356.5,265C 355.906,265.464 355.239,265.631 354.5,265.5C 353.348,264.375 352.348,264.375 351.5,265.5C 350.221,266.968 348.554,267.635 346.5,267.5C 346.822,265.278 346.155,263.444 344.5,262C 342.473,260.121 340.14,258.954 337.5,258.5C 337.649,257.448 337.483,256.448 337,255.5C 334.637,253.634 332.47,251.634 330.5,249.5 Z"/></g>
<g><path style="opacity:0.847" fill="#c27477" d="M 354.5,284.5 C 357.611,286.05 358.444,288.383 357,291.5C 358.522,293.022 360.022,294.522 361.5,296C 362.291,297.101 362.291,297.934 361.5,298.5C 357.875,295.009 354.209,291.509 350.5,288C 348.922,286.906 347.255,286.072 345.5,285.5C 339.417,280.735 333.083,276.235 326.5,272C 312.686,265.243 299.019,258.41 285.5,251.5C 285.47,250.503 285.97,249.836 287,249.5C 290.921,251.712 295.088,253.212 299.5,254C 318.158,263.175 335.824,274.175 352.5,287C 354.061,287.188 354.728,286.355 354.5,284.5 Z"/></g>
<g><path style="opacity:0.89" fill="#be6364" d="M 351.5,278.5 C 352.5,279.833 353.5,281.167 354.5,282.5C 354.5,283.167 354.5,283.833 354.5,284.5C 346.864,280.181 340.197,274.681 334.5,268C 329.198,265.436 323.698,263.269 318,261.5C 310.263,257.749 303.763,252.583 298.5,246C 299,245.833 299.5,245.667 300,245.5C 303.672,249.586 307.838,253.086 312.5,256C 322.086,259.793 331.419,264.126 340.5,269C 342.037,270.11 342.703,271.61 342.5,273.5C 343.552,273.351 344.552,273.517 345.5,274C 346.532,276.874 348.532,278.374 351.5,278.5 Z"/></g>
<g><path style="opacity:0.8" fill="#bc7c7e" d="M 347.5,255.5 C 355.307,261.41 362.473,268.077 369,275.5C 369.591,276.483 369.257,277.15 368,277.5C 362.994,273.99 358.494,269.99 354.5,265.5C 355.239,265.631 355.906,265.464 356.5,265C 354.056,262.605 351.39,260.438 348.5,258.5C 347.614,257.675 347.281,256.675 347.5,255.5 Z"/></g>
<g><path style="opacity:0.788" fill="#c65f62" d="M 207.5,265.5 C 203.216,267.784 199.882,271.118 197.5,275.5C 199.201,278.205 199.534,280.872 198.5,283.5C 197.79,279.653 196.624,275.986 195,272.5C 191.236,273.428 189.07,275.761 188.5,279.5C 189.978,279.238 191.311,279.571 192.5,280.5C 192.291,281.086 191.957,281.586 191.5,282C 193.119,282.236 194.119,283.069 194.5,284.5C 185.076,284.278 183.076,280.445 188.5,273C 193.204,270.654 197.537,267.82 201.5,264.5C 203.06,264.481 204.56,264.148 206,263.5C 207.03,263.836 207.53,264.503 207.5,265.5 Z"/></g>
<g><path style="opacity:0.793" fill="#c03b3a" d="M 198.5,283.5 C 198.38,284.586 197.713,285.253 196.5,285.5C 195.584,285.457 194.917,285.124 194.5,284.5C 194.119,283.069 193.119,282.236 191.5,282C 191.957,281.586 192.291,281.086 192.5,280.5C 191.311,279.571 189.978,279.238 188.5,279.5C 189.07,275.761 191.236,273.428 195,272.5C 196.624,275.986 197.79,279.653 198.5,283.5 Z"/></g>
<g><path style="opacity:0.816" fill="#bd6164" d="M 359.5,274.5 C 364.944,278.109 369.61,282.609 373.5,288C 373.167,288.5 372.833,289 372.5,289.5C 368.253,287.579 364.586,284.913 361.5,281.5C 358.306,277.144 354.306,273.644 349.5,271C 349.667,270.5 349.833,270 350,269.5C 353.059,271.397 356.225,273.064 359.5,274.5 Z"/></g>
<g><path style="opacity:0.4" fill="#ce9092" d="M 354.5,282.5 C 357.797,285.296 360.964,288.296 364,291.5C 368.054,299.112 372.221,306.612 376.5,314C 375.5,314.667 374.5,314.667 373.5,314C 371.3,311.766 369.467,309.266 368,306.5C 367.82,308.488 367.986,310.488 368.5,312.5C 367.325,312.719 366.325,312.386 365.5,311.5C 364.333,309.167 363.167,306.833 362,304.5C 356.262,298.27 350.762,291.936 345.5,285.5C 347.255,286.072 348.922,286.906 350.5,288C 354.209,291.509 357.875,295.009 361.5,298.5C 362.291,297.934 362.291,297.101 361.5,296C 360.022,294.522 358.522,293.022 357,291.5C 358.444,288.383 357.611,286.05 354.5,284.5C 354.5,283.833 354.5,283.167 354.5,282.5 Z"/></g>
</svg>
