<svg xmlns="http://www.w3.org/2000/svg" viewBox="0 0 1440 320">
  <path fill="#000000" fill-opacity="1" d="M0,32L20,53.3C40,75,80,117,120,128C160,139,200,117,240,128C280,139,320,181,360,202.7C400,224,440,224,480,224C520,224,560,224,600,208C640,192,680,160,720,154.7C760,149,800,171,840,160C880,149,920,107,960,106.7C1000,107,1040,149,1080,149.3C1120,149,1160,107,1200,96C1240,85,1280,107,1320,101.3C1360,96,1400,64,1420,48L1440,32L1440,0L1420,0C1400,0,1360,0,1320,0C1280,0,1240,0,1200,0C1160,0,1120,0,1080,0C1040,0,1000,0,960,0C920,0,880,0,840,0C800,0,760,0,720,0C680,0,640,0,600,0C560,0,520,0,480,0C440,0,400,0,360,0C320,0,280,0,240,0C200,0,160,0,120,0C80,0,40,0,20,0L0,0Z"></path>
</svg>