<?xml version="1.0" encoding="utf-8"?>
<svg viewBox="1.988 0 1437.638 179.086" xmlns="http://www.w3.org/2000/svg">
  <path fill="#000000" fill-opacity="1" d="M -0.884 88.437 C -0.927 85.894 51.87 71.158 120.625 79.108 C 189.38 87.058 221.517 99.119 250.923 93.196 C 280.329 87.273 329.296 88.576 371.225 106.263 C 405.208 120.598 552.212 105.739 598.165 95.946 C 644.118 86.153 697.161 95.062 737.223 99.873 C 777.65 104.728 806.804 122.128 846.589 105.819 C 886.374 89.51 917.748 100.968 960 106.7 C 1002.252 112.432 1065.615 107.444 1105.61 107.733 C 1145.605 108.022 1160 107 1200 96 C 1240 85 1318.134 103.222 1345.236 73.256 C 1363.217 53.375 1441.559 92.484 1441.559 76.745 L 1440 0 L 1420 0 C 1400 0 1360 0 1320 0 C 1280 0 1240 0 1200 0 C 1160 0 1120 0 1080 0 C 1040 0 1000 0 960 0 C 920 0 880 0 840 0 C 800 0 760 0 720 0 C 680 0 640 0 600 0 C 560 0 520 0 480 0 C 440 0 400 0 360 0 C 320 0 280 0 240 0 C 200 0 160 0 120 0 C 80 0 40 0 20 0 L 0 0 L -0.884 88.437 Z"/>
</svg>