<?xml version="1.0" standalone="no"?>
<!DOCTYPE svg PUBLIC "-//W3C//DTD SVG 20010904//EN"
 "http://www.w3.org/TR/2001/REC-SVG-20010904/DTD/svg10.dtd">
<svg version="1.0" xmlns="http://www.w3.org/2000/svg"
 width="409.000000pt" height="409.000000pt" viewBox="0 0 409.000000 409.000000"
 preserveAspectRatio="xMidYMid meet">
<metadata>
Created by potrace 1.14, written by Peter Selinger 2001-2017
</metadata>
<g transform="translate(0.000000,409.000000) scale(0.100000,-0.100000)"
fill="#000000" stroke="none">
<path d="M1995 3480 c-3 -5 -3 -10 1 -10 4 0 1 -6 -8 -12 -9 -7 -31 -58 -50
-113 -18 -55 -36 -101 -40 -103 -5 -2 -8 -11 -8 -21 0 -9 -7 -27 -16 -39 -8
-12 -13 -26 -10 -31 4 -5 3 -11 -1 -13 -5 -1 -17 -21 -28 -43 -48 -98 -140
-233 -151 -222 -3 2 2 17 11 33 31 60 65 147 95 241 40 125 38 117 36 124 0 3
5 13 13 22 7 10 11 17 8 17 -3 0 1 21 9 47 17 55 18 77 4 68 -6 -4 -8 -10 -5
-15 3 -4 0 -10 -5 -12 -6 -2 -15 -21 -21 -43 -15 -62 -16 -65 -49 -160 -37
-109 -157 -354 -176 -362 -8 -3 -11 -9 -8 -14 3 -5 0 -9 -6 -9 -6 0 -9 -4 -6
-9 3 -4 -3 -16 -14 -26 -11 -10 -20 -23 -20 -30 0 -7 -9 -20 -21 -31 l-21 -19
7 40 c3 22 8 49 9 61 2 11 6 26 10 32 3 6 1 14 -5 18 -7 4 -9 3 -5 -4 3 -6 2
-13 -4 -17 -5 -3 -10 3 -10 14 0 25 -10 51 -20 51 -4 0 -8 -17 -8 -38 0 -20
-6 -51 -12 -67 -6 -17 -11 -30 -10 -30 4 0 -26 -70 -59 -135 -35 -68 -61 -136
-78 -201 -3 -13 -7 -76 -7 -140 l-1 -116 -38 -28 c-32 -23 -46 -27 -85 -23
-26 3 -72 17 -101 32 -80 40 -175 57 -238 42 -26 -6 -116 -57 -121 -68 -2 -4
-10 -8 -17 -8 -8 0 -33 -25 -57 -55 -32 -42 -49 -55 -70 -56 -16 -1 -32 -3
-38 -4 -5 -1 -16 -3 -22 -4 -7 -1 -29 -14 -47 -30 l-35 -29 45 1 c24 0 44 -4
44 -9 0 -5 -4 -8 -8 -6 -4 1 -10 -5 -13 -13 -3 -8 -9 -13 -13 -11 -10 6 -37
-11 -30 -19 4 -3 22 -7 40 -9 19 -2 48 -9 64 -16 71 -30 89 -40 76 -40 -11 0
-11 -3 0 -17 8 -9 9 -14 3 -10 -7 4 -9 -2 -6 -19 3 -19 7 -22 13 -12 6 9 9 7
9 -9 0 -12 16 -38 37 -58 20 -19 33 -35 29 -35 -4 0 2 -14 14 -30 12 -17 26
-28 31 -24 5 3 7 10 4 15 -9 14 11 11 24 -4 6 -8 10 -16 8 -18 -1 -2 0 -3 2
-2 2 1 18 -9 35 -24 26 -22 32 -23 34 -9 2 9 7 14 11 12 4 -3 18 -7 32 -10 13
-2 38 -9 54 -16 29 -11 30 -12 10 -27 -20 -15 -20 -15 3 -8 15 4 22 2 22 -7 0
-13 43 -38 66 -38 14 0 27 -28 18 -41 -3 -5 0 -9 6 -9 6 0 9 -4 6 -9 -4 -5 3
-7 14 -4 11 3 17 10 13 16 -4 6 -1 7 8 1 15 -10 80 -34 91 -34 4 0 -2 16 -14
36 l-21 35 29 -7 c16 -4 43 -14 59 -22 17 -9 33 -17 38 -18 4 -1 9 -3 12 -4 3
-1 8 -3 13 -4 4 -1 16 -7 27 -13 17 -10 18 -14 7 -25 -11 -11 -16 -10 -28 6
-8 11 -14 15 -14 9 0 -19 30 -37 42 -25 8 8 23 0 56 -28 25 -22 51 -40 58 -40
8 0 14 -6 14 -12 0 -9 3 -8 10 2 7 12 12 12 22 2 6 -6 22 -12 34 -12 12 0 28
-8 35 -17 8 -9 9 -14 3 -10 -11 6 -29 -19 -26 -35 1 -4 -5 -5 -13 -2 -8 4 -15
1 -15 -5 0 -6 -7 -11 -15 -11 -8 0 -15 -3 -15 -6 0 -14 93 -92 115 -97 26 -4
50 14 37 28 -4 5 -2 5 5 1 6 -3 14 -2 18 4 3 5 1 10 -6 10 -7 0 -10 3 -6 6 12
12 -17 33 -31 22 -9 -8 -11 -7 -6 7 5 13 4 16 -4 11 -7 -4 -12 -2 -12 6 -1 8
-7 5 -17 -7 l-16 -20 8 20 c4 11 8 27 10 35 2 8 4 17 5 20 1 3 2 8 1 12 -1 9
33 -12 112 -66 32 -21 57 -43 57 -48 0 -5 4 -7 9 -4 5 4 11 1 13 -4 2 -6 21
-13 42 -17 32 -5 38 -4 31 8 -7 11 -6 12 6 2 8 -6 16 -11 19 -12 3 0 13 -3 23
-7 10 -4 23 -2 29 4 14 14 87 -13 110 -42 11 -13 18 -16 18 -7 0 10 9 11 38 6
20 -4 45 -8 55 -7 9 0 17 -3 17 -9 0 -5 5 -9 11 -9 5 0 8 4 4 9 -3 5 9 3 25
-6 39 -19 48 -11 26 22 -11 16 -12 25 -5 25 7 0 2 9 -10 19 -28 25 -15 33 24
15 17 -8 22 -12 12 -9 -10 3 -15 1 -12 -4 3 -6 18 -9 33 -9 15 0 39 -5 55 -11
l27 -11 -15 36 c-20 48 -19 53 8 46 22 -5 22 -5 3 16 -11 12 -17 22 -14 22 15
0 74 -25 80 -34 5 -7 8 -7 8 2 0 7 5 10 10 7 8 -5 7 -12 -2 -23 -9 -12 -6 -11
10 2 27 23 28 42 3 82 l-18 30 33 -10 c18 -6 30 -14 27 -19 -3 -5 3 -4 14 2
16 8 24 6 40 -15 12 -14 24 -21 27 -16 3 6 -1 12 -9 16 -23 9 -18 25 8 21 21
-4 20 -3 -5 18 l-28 23 65 -2 c64 -2 66 -3 124 -56 58 -54 109 -82 355 -198
177 -83 296 -170 426 -315 30 -33 58 -59 62 -57 4 1 7 -1 6 -5 -5 -16 44 -103
54 -97 6 4 6 9 1 13 -8 5 -40 93 -36 98 1 1 -9 23 -22 49 -13 25 -21 53 -18
62 5 11 3 13 -7 7 -10 -6 -12 -4 -7 8 3 9 3 16 -2 14 -4 -1 -26 21 -49 48 -57
68 -56 66 -96 100 -44 36 -46 49 -6 29 17 -9 30 -22 30 -30 0 -8 5 -14 11 -14
5 0 7 4 4 10 -3 5 -1 10 4 10 6 0 11 -4 11 -10 0 -5 9 -10 21 -10 11 0 17 -4
14 -10 -3 -5 1 -10 10 -10 10 0 13 -5 9 -12 -4 -6 -3 -8 4 -4 6 3 17 -1 25 -9
9 -8 19 -15 24 -15 4 0 20 -13 35 -28 32 -33 88 -67 88 -54 0 13 -107 111
-147 135 -38 22 -44 33 -10 17 20 -10 20 -9 -3 9 -14 11 -29 21 -34 21 -5 0
-7 3 -4 6 6 6 -82 94 -94 94 -5 0 -8 4 -8 10 0 12 85 -35 118 -64 54 -49 70
-62 97 -86 l29 -25 -24 35 c-54 79 -225 215 -330 262 -19 9 -73 32 -120 53
-137 59 -168 77 -233 133 -33 28 -64 52 -68 52 -4 0 -47 39 -96 88 -83 82
-243 192 -280 192 -7 0 -13 7 -13 15 0 8 -9 15 -19 15 -18 0 -30 17 -37 49 -1
8 -9 18 -16 22 -8 6 -1 8 18 5 17 -2 36 -6 43 -10 22 -14 48 -14 48 -1 0 8 -4
12 -8 10 -8 -5 -39 39 -39 55 0 6 5 8 10 5 6 -4 17 -1 25 5 12 10 12 14 -1 27
-11 11 -12 19 -5 26 17 17 13 27 -14 37 -27 10 -34 44 -10 53 18 8 12 39 -15
77 -21 30 -40 39 -40 20 0 -5 3 -9 8 -7 4 1 7 -1 7 -5 0 -4 8 -13 18 -20 18
-13 34 -63 16 -53 -5 4 -9 11 -9 17 0 6 -16 26 -35 45 -29 28 -33 38 -28 63 3
16 9 27 14 24 5 -3 9 0 9 6 0 18 49 62 62 54 7 -4 8 -3 4 4 -4 7 -3 12 3 12 5
0 11 -5 13 -12 3 -7 7 -5 11 6 4 10 3 15 -3 11 -13 -8 -13 8 0 21 7 7 5 11 -7
11 -10 0 -20 -3 -23 -6 -3 -3 -25 -21 -49 -40 -34 -26 -41 -29 -32 -12 7 11
17 21 22 21 6 0 9 7 6 15 -7 17 9 30 18 15 7 -12 25 -4 25 11 0 6 -6 7 -12 3
-7 -4 1 6 17 22 35 34 47 35 20 2 -10 -13 -4 -9 13 9 32 32 42 50 20 37 -7 -5
-8 -3 -4 5 5 7 14 10 21 7 7 -2 15 1 18 8 6 16 -30 14 -63 -2 -23 -12 -23 -12
3 8 15 12 24 27 20 33 -4 6 0 8 10 4 12 -4 17 -1 17 9 0 10 -6 14 -15 10 -10
-3 -15 1 -15 11 0 13 -6 12 -27 -9 -34 -32 -73 -52 -73 -39 0 5 -12 4 -27 -4
-48 -25 -39 -4 21 50 51 46 61 52 71 39 10 -14 13 -14 26 3 13 17 13 17 -6 3
-19 -14 -19 -14 -6 2 7 10 17 15 23 12 9 -6 48 32 48 46 0 12 -48 -1 -61 -16
-6 -8 -18 -14 -26 -14 -8 0 -27 -7 -43 -15 -20 -11 -28 -11 -26 -2 1 6 4 12 8
12 10 0 48 38 48 48 0 6 -6 3 -13 -7 -12 -16 -14 -16 -14 -2 0 15 10 20 31 17
14 -3 47 42 41 57 -4 12 -3 13 10 2 12 -10 16 -9 21 4 3 9 11 13 17 9 5 -3 7
-2 4 4 -4 5 3 20 14 32 23 25 18 42 -5 18 -8 -8 -12 -17 -9 -21 4 -3 -1 -6
-10 -6 -10 0 -17 -8 -17 -17 0 -13 -3 -14 -12 -5 -9 9 -7 16 7 32 18 19 18 20
-3 20 -13 0 -22 -6 -22 -16 0 -8 -4 -12 -10 -9 -5 3 -10 -1 -10 -9 0 -9 -7
-16 -15 -16 -8 0 -15 -4 -15 -8 0 -11 -85 -58 -139 -77 -48 -17 -52 -10 -13
25 15 14 41 43 57 65 16 22 35 44 42 48 7 5 11 13 7 18 -3 6 3 13 15 16 11 3
18 9 15 14 -3 5 0 9 7 9 7 0 10 3 7 6 -10 9 -46 -14 -112 -70 -72 -60 -147
-106 -173 -105 -13 0 -14 2 -4 6 20 8 141 132 141 144 0 6 4 7 10 4 5 -3 7 0
4 9 -3 9 2 17 15 21 27 8 141 118 141 136 0 8 -3 10 -8 4 -4 -5 -13 -11 -19
-12 -7 -2 -25 -16 -40 -31 -30 -31 -105 -83 -156 -108 -25 -12 -16 0 38 53 39
37 84 87 102 110 53 68 2 42 -65 -34 -31 -35 -73 -74 -92 -86 -19 -12 -48 -35
-65 -52 -38 -39 -105 -96 -134 -115 -13 -8 -43 -30 -67 -47 -72 -55 -62 -38
32 56 89 88 174 180 174 187 0 2 16 25 35 50 20 26 34 48 32 51 -3 2 9 18 24
34 16 17 29 38 29 45 0 8 7 17 15 20 8 4 13 10 10 14 -2 4 7 20 20 34 14 15
25 33 25 41 0 7 6 15 13 18 7 2 8 8 3 13 -5 5 -11 4 -13 -3 -3 -7 -11 -13 -20
-13 -18 0 -27 -10 -85 -90 -48 -67 -133 -158 -229 -245 -105 -96 -148 -126
-109 -78 14 17 27 29 29 27 6 -5 97 101 141 165 14 20 31 43 38 51 22 25 97
133 121 175 13 22 31 46 39 53 10 7 11 12 4 12 -7 0 -12 5 -12 11 0 5 4 8 9 4
5 -3 12 -1 16 5 3 5 -2 10 -12 10 -14 0 -15 2 -4 9 7 5 10 14 7 20 -8 12 -27
15 -25 4 2 -12 -25 -73 -32 -73 -3 0 -14 -18 -24 -40 -10 -22 -22 -40 -26 -40
-4 0 -10 -8 -13 -18 -4 -10 -14 -27 -24 -38 -9 -10 -30 -37 -46 -59 -45 -60
-139 -156 -149 -152 -6 2 -29 -17 -53 -43 -42 -45 -115 -96 -98 -69 4 8 51 68
102 134 52 66 99 130 105 142 6 13 14 23 19 23 4 0 8 7 8 15 0 8 5 15 11 15 5
0 8 4 5 9 -4 5 -2 11 3 13 5 1 36 56 69 120 33 65 55 115 50 112 -4 -3 1 11
12 31 12 21 15 34 8 30 -7 -4 -5 0 5 8 16 14 16 15 1 21 -9 4 -18 5 -18 4 -1
-2 -12 -30 -26 -63 -56 -142 -196 -370 -282 -459 -26 -27 -48 -53 -48 -57 0
-4 -9 -11 -20 -14 -11 -3 -20 -10 -20 -14 0 -9 -64 -77 -95 -101 -11 -8 -4 5
15 28 38 47 60 80 86 127 9 17 20 32 24 35 11 8 100 168 100 180 0 5 5 10 10
10 6 0 10 5 10 11 0 6 9 24 21 40 11 16 17 29 13 29 -3 0 -2 6 4 13 5 6 27 53
47 102 21 50 45 99 54 109 9 11 10 16 4 12 -7 -4 -13 -2 -13 3 0 6 5 11 12 11
9 0 9 3 0 12 -8 8 -15 8 -21 3 -7 -9 -45 -102 -46 -115 -1 -10 -98 -195 -105
-200 -4 -3 -15 -22 -25 -42 -9 -21 -21 -38 -26 -38 -5 0 -9 -6 -9 -13 0 -7 -9
-23 -20 -35 -12 -12 -17 -22 -13 -22 4 0 0 -5 -9 -11 -10 -5 -18 -16 -18 -22
0 -7 -9 -19 -20 -27 -11 -8 -20 -20 -20 -27 0 -7 -4 -13 -9 -13 -5 0 -13 -9
-16 -21 -4 -11 -9 -18 -12 -15 -3 2 13 39 36 82 23 42 41 80 41 85 0 5 20 52
45 104 24 52 47 107 51 122 4 16 15 45 26 66 10 20 16 37 14 37 -3 0 3 20 14
45 11 25 20 47 20 50 0 3 0 6 1 8 4 13 6 37 4 37 -2 0 -7 -4 -10 -10z m535
-1530 c0 -5 -4 -10 -10 -10 -5 0 -10 5 -10 10 0 6 5 10 10 10 6 0 10 -4 10
-10z"/>
<path d="M2359 3283 c-13 -16 -12 -17 4 -4 9 7 17 15 17 17 0 8 -8 3 -21 -13z"/>
<path d="M1641 2964 c0 -11 3 -14 6 -6 3 7 2 16 -1 19 -3 4 -6 -2 -5 -13z"/>
<path d="M1530 2870 c-9 -6 -10 -10 -3 -10 6 0 15 5 18 10 8 12 4 12 -15 0z"/>
<path d="M2610 2570 c0 -5 5 -10 10 -10 6 0 10 5 10 10 0 6 -4 10 -10 10 -5 0
-10 -4 -10 -10z"/>
<path d="M2496 2482 c-3 -5 1 -9 9 -9 8 0 12 4 9 9 -3 4 -7 8 -9 8 -2 0 -6 -4
-9 -8z"/>
<path d="M2473 2458 c1 -7 -4 -12 -11 -10 -8 1 -11 -2 -7 -8 5 -8 11 -8 21 1
7 6 11 15 8 20 -8 13 -14 11 -11 -3z"/>
<path d="M2525 1850 c3 -5 8 -10 11 -10 2 0 4 5 4 10 0 6 -5 10 -11 10 -5 0
-7 -4 -4 -10z"/>
<path d="M2476 1765 c4 -8 8 -15 10 -15 2 0 4 7 4 15 0 8 -4 15 -10 15 -5 0
-7 -7 -4 -15z"/>
<path d="M1286 1396 c10 -8 21 -12 24 -10 5 6 -21 24 -34 24 -6 0 -1 -6 10
-14z"/>
<path d="M1150 1374 c0 -8 5 -12 10 -9 6 4 8 11 5 16 -9 14 -15 11 -15 -7z"/>
<path d="M1427 1299 c7 -7 15 -10 18 -7 3 3 -2 9 -12 12 -14 6 -15 5 -6 -5z"/>
<path d="M2050 1022 c-21 -25 -87 -72 -99 -72 -6 0 -11 -4 -11 -10 0 -5 -8
-10 -19 -10 -12 0 -25 -14 -36 -37 -17 -36 -17 -36 6 -54 13 -10 26 -16 28
-13 2 2 14 -2 26 -10 12 -8 27 -11 35 -6 12 7 11 22 -3 85 -3 15 12 36 57 79
33 32 56 55 49 52 -6 -3 -13 -2 -15 4 -1 5 -10 1 -18 -8z"/>
<path d="M3621 738 c0 -9 4 -20 10 -23 11 -8 33 -55 31 -68 -1 -4 1 -6 6 -6
18 3 26 -2 14 -9 -9 -6 -5 -15 15 -33 15 -13 21 -16 13 -6 -7 10 -15 28 -15
39 -1 11 -9 25 -19 30 -9 5 -14 13 -11 17 2 5 -2 14 -10 21 -8 7 -12 17 -8 23
3 5 1 7 -5 3 -6 -3 -13 2 -15 11 -4 16 -5 16 -6 1z"/>
</g>
</svg>
