<svg xmlns="http://www.w3.org/2000/svg" width="50" height="50" viewBox="0 0 50 50">
  <path fill="#ffffff"
    d="M25-0.009C11.21-0.009-0.009,11.21-0.009,25S11.21,50.009,25,50.009S50.009,38.79,50.009,25S38.79-0.009,25-0.009z M34.7,36.3c-0.4,0-0.7-0.1-1-0.399c-3.5-2.101-7.8-3.2-12.4-3.2c-2.6,0-5.2,0.3-7.6,0.8c-0.4,0.1-0.9,0.2-1.2,0.2 c-0.9,0-1.5-0.7-1.5-1.5c0-1,0.6-1.5,1.3-1.601c3-0.699,5.9-1.1,9-1.1c5.3,0,9.9,1.2,14,3.6c0.601,0.301,1,0.7,1,1.601 C36.2,35.7,35.5,36.3,34.7,36.3z M37.4,30c-0.5,0-0.801-0.2-1.2-0.4C32.3,27.3,26.9,25.7,21,25.7c-3,0-5.7,0.399-7.8,1 C12.7,26.8,12.5,27,12,27c-1,0-1.9-0.8-1.9-1.9c0-1,0.5-1.7,1.5-2c2.7-0.7,5.5-1.3,9.5-1.3c6.3,0,12.4,1.6,17.1,4.4 c0.8,0.5,1.1,1,1.1,1.899C39.2,29.1,38.4,30,37.4,30z M40.3,22.6c-0.5,0-0.8-0.1-1.2-0.4c-4.3-2.6-11.1-4-17.6-4 c-3.3,0-6.6,0.3-9.6,1.2c-0.3,0.1-0.8,0.3-1.2,0.3c-1.3,0-2.3-1-2.3-2.3c0-1.3,0.8-2,1.7-2.3c3.4-1,7.2-1.5,11.4-1.5 c7,0,14.5,1.4,19.9,4.6c0.699,0.4,1.199,1,1.199,2.2C42.6,21.6,41.5,22.6,40.3,22.6z">
  </path>
</svg>